<svg xmlns="http://www.w3.org/2000/svg" viewBox="0 0 800 800">
  <g id="moon" transform="matrix( 1, 0, 0, 1, 0,0) ">
    <g>
      <g id="Layer3_0_FILL">
        <path fill="#d45211" d="M732.51,459.82c-10.44,19.63-24.94,37.61-43.51,53.95c-40.12,35.29-88.66,53.71-145.61,55.26     c17.98,5.51,36.98,8.56,57,9.14c55.79,1.55,102.83-16.24,141.11-53.37c38.29-37.22,56.66-82.96,55.11-137.2     c-1.55-54.24-22.67-101.13-63.38-140.68c-28.14-27.36-59.99-45.68-95.57-54.97c14.99,8.7,29.2,19.05,42.64,31.04     c46.51,41.38,70.58,90.45,72.22,147.2C753.39,403.06,746.72,432.94,732.51,459.82z" />
      </g>
    </g>
  </g>
  <g id="star" transform="matrix( 1, 0, 0, 1, 0,0) ">
    <g>
      <g id="Layer2_0_FILL">
        <path fill="white" d="M453.47,252.86c0.08-5.42,1.68-9.43,4.79-12.04c3.32-2.91,8.15-4.4,14.5-4.5     c-4.86-0.06-9.07-1.12-12.62-3.19c-4.4-2.46-6.63-7.29-6.67-14.5c-0.1,5.79-1.55,10.29-4.35,13.49     c-3.8,2.41-8.54,3.86-14.21,4.35C447.03,235.75,453.22,241.21,453.47,252.86 M521.64,272.73c-20.17-1.34-31.77-12.22-34.81-32.63     c1.42,20.19-9.21,31.07-31.91,32.63c20.52,0.9,32.12,11.54,34.81,31.91C489.47,283.17,500.11,272.53,521.64,272.73      M515.83,258.23c50.92,9.93,77.99,38.93,81.22,87.02c4.35-47.03,32.39-77,84.12-89.92c-49.8-7.71-77.84-34.78-84.12-81.22     C589.5,220.7,562.42,248.74,515.83,258.23z" />
      </g>
    </g>
  </g>
  <g id="jwan" transform="matrix( 1, 0, 0, 1, 0,0) ">
    <g>
      <g id="Layer1_0_FILL">
        <path fill="white" d="M8.09,463.15l-2.76,12.04H70.6l11.17-92.09H47.83l4.21,12.18l-8.41,67.87H8.09 M245.65,383.1l3.19,11.89     l-38.14,80.2h29.88l17.69-41.33h31.33l7.83,41.33h29.59l-21.46-92.09H245.65 M274.8,394.7h7.4l4.5,23.64     c0.1,0.39,0.19,0.87,0.29,1.45c0.1,0.77,0.24,1.6,0.44,2.47h-24.22c0.29-0.48,0.58-1.02,0.87-1.6L274.8,394.7 M125.13,442.27     l-5.37-59.32H92.93l10.44,92.09h28.57l19.87-44.09l10.3,44.09h28.57l31.33-92.09h-26.69l-19,58.16l-10.88-58.16h-24.51     l3.77,16.68L125.13,442.27 M447.24,383.1h-27.99l-7.98,65.26l-30.46-65.26h-35.68l2.76,12.18l-9.72,79.91h28.14l7.69-63.96     l30.89,63.96h31.18L447.24,383.1z" />
      </g>
    </g>
  </g>
  <g id="fs" transform="matrix( 1, 0, 0, 1, 0,0) ">
    <g>
      <g id="Layer0_0_FILL">
        <path fill="#d45211" d="M625.33,394.56l-1.45,13.92l28.28-5.37l2.32-20.16h-93.54l-6.24,51.2h66.42l-0.43,3.05     c-0.19,1.26-0.34,2.51-0.44,3.77l-2.76,22.04h-66.57l-1.45,12.04h94.99l6.53-52.94h-66.42l3.34-27.56H625.33 M495.68,421.82     l3.19-26.54h50.91l2.47-12.33h-84.12l2.76,12.18l-9.72,79.91h28.14l4.79-40.61h48.44l2.47-12.62H495.68z" />
      </g>
    </g>
  </g>
</svg>
